<svg xmlns="http://www.w3.org/2000/svg" viewBox="0 0 497.94 497.94"><defs><style>.cls-1{fill:#162b33;}.cls-2{fill:#7fdaff;}.cls-3{fill:#6dd0f7;}.cls-4{fill:#fffcf3;}.cls-5{fill:#136484;opacity:0.5;}</style></defs><title>Logo3</title><g id="Layer_2" data-name="Layer 2"><g id="Layer_2_copy_2" data-name="Layer 2 copy 2"><rect class="cls-1" x="80.49" y="80.49" width="334.81" height="334.81" transform="translate(-102.68 247.9) rotate(-45)"/><polygon class="cls-2" points="181.21 167.69 198.5 237.59 199.47 241.49 243.83 222.23 181.21 167.69"/><polygon class="cls-2" points="249.89 232.98 229.51 240.96 277.41 258.77 249.89 232.98"/><polygon class="cls-3" points="279.24 328.08 278.21 282.24 250.05 336 279.24 328.08"/><polygon class="cls-2" points="252.52 291.53 271.05 269.86 271.11 269.57 203.2 250.06 188.64 257.09 202.16 303.67 252.52 291.53"/><polygon class="cls-4" points="216.42 316.32 223.74 339.55 249.97 307.41 216.42 316.32"/><polygon class="cls-2" points="247.6 394.41 263.91 357.17 226.44 350.72 227.89 370.86 247.6 394.41"/><polygon class="cls-2" points="236.15 409.42 255.82 442.53 254.54 417.42 236.15 409.42"/><polygon class="cls-2" points="110 186.19 143.46 321.43 174.63 195.46 152.1 104.42 102.13 154.39 110 186.19"/><polygon class="cls-2" points="367.31 220.44 387.21 140.03 342.38 95.2 299.75 267.47 296.7 279.82 324.66 392.82 367.31 220.44"/><polygon class="cls-2" points="185.22 74.18 166.78 92.62 180.52 151.78 260.31 221.27 264 219.66 185.22 74.18"/><polygon class="cls-2" points="251.13 6.11 193.91 63.33 272.67 210.64 304.31 196.9 328.75 83.73 251.13 6.11"/><polygon class="cls-2" points="286.66 247.73 289.92 239.17 299.48 214.07 276.28 220.95 286.66 247.73"/><polygon class="cls-4" points="151.71 103.74 142.93 318.23 143.46 320.36 174.63 194.38 152.1 103.34 151.71 103.74"/><polygon class="cls-4" points="245.88 11.36 193.91 63.33 269.15 204.07 245.88 11.36"/><polygon class="cls-5" points="272.75 210 272.71 210.65 304.29 196.84 327.36 90.22 272.75 210"/><polygon class="cls-5" points="102.6 158.88 126.2 253.83 114.94 145.47 102.6 158.88"/><polygon class="cls-4" points="324.74 392.87 308.56 327.74 322.26 291.51 324.74 392.87"/><polygon class="cls-5" points="296.7 279.82 304.29 311.76 351.14 173.55 350.42 288.69 384.93 149.05 340.5 103.1 296.7 279.82"/><polygon class="cls-5" points="279.24 328.06 278.21 282.21 264.06 332.14 279.24 328.06"/><path class="cls-2" d="M249,497.94,0,249,249,0l249,249ZM12.23,249,249,485.71,485.71,249,249,12.23Z"/><polygon class="cls-4" points="243.83 222.23 188.63 196.4 199.47 241.49 243.83 222.23"/><polygon class="cls-4" points="242.72 275.31 271.11 269.57 203.2 250.06 242.72 275.31"/><polygon class="cls-5" points="188.64 257.09 202.16 303.67 222.12 298.92 188.64 257.09"/><polygon class="cls-4" points="226.44 350.72 247.6 394.41 227.89 370.86 226.44 350.72"/><polygon class="cls-4" points="249.89 232.98 253.78 249.98 229.51 240.96 249.89 232.98"/><polygon class="cls-5" points="264 219.66 185.88 75.34 243.35 206.54 260.31 221.27 264 219.66"/><polygon class="cls-4" points="180.52 151.78 182.5 76.61 166.78 92.62 180.52 151.78"/></g></g></svg>